<?xml version="1.0" encoding="iso-8859-1"?>
<!-- Uploaded to: SVG Repo, www.svgrepo.com, Generator: SVG Repo Mixer Tools -->
<svg version="1.1" id="Layer_1" xmlns="http://www.w3.org/2000/svg" xmlns:xlink="http://www.w3.org/1999/xlink" 
	 viewBox="0 0 512 512" xml:space="preserve">
<circle style="fill:#273B7A;" cx="256" cy="256" r="256"/>
<path style="fill:#121149;" d="M292.759,509.362c117.4-16.884,209.06-113.412,218.441-233.077l-215.998-216l-7.021,44.21
	l-92.965,307.321L292.759,509.362z"/>
<path style="fill:#FEE187;" d="M204.535,415.677h102.933c7.28,0,13.181-5.901,13.181-13.181V137.949
	c0-7.28-5.901-13.181-13.181-13.181H204.535c-7.28,0-13.181,5.901-13.181,13.181v264.549
	C191.354,409.776,197.254,415.677,204.535,415.677z"/>
<path style="fill:#FFC61B;" d="M307.465,124.768h-52.04v290.909h52.04c7.28,0,13.181-5.901,13.181-13.181V137.949
	C320.646,130.669,314.746,124.768,307.465,124.768z"/>
<path style="fill:#02B2B2;" d="M213.333,199.111h85.333V68.598c0-6.466-5.242-11.709-11.709-11.709h-61.916
	c-6.466,0-11.709,5.242-11.709,11.709L213.333,199.111L213.333,199.111z"/>
<path style="fill:#386895;" d="M298.667,68.598c0-6.466-5.242-11.709-11.709-11.709h-31.532v142.222h43.241V68.598z"/>
<path style="fill:#273B7A;" d="M259.448,115.164c8.337-1.615,14.653-8.961,14.653-17.763c0-9.981-8.12-18.101-18.101-18.101
	c-9.981,0-18.101,8.12-18.101,18.101c0,8.802,6.316,16.148,14.653,17.763v55.503h6.896v-7.758h12.067v-6.896h-12.067v-5.172h12.067
	v-6.896h-12.067V115.164z M244.795,97.401c0-6.178,5.027-11.205,11.205-11.205c6.178,0,11.205,5.027,11.205,11.205
	c0,6.178-5.027,11.205-11.205,11.205C249.822,108.606,244.795,103.579,244.795,97.401z"/>
<path style="fill:#121149;" d="M259.448,115.164c8.337-1.615,14.653-8.961,14.653-17.763c0-9.981-8.12-18.101-18.101-18.101
	c-0.193,0-0.381,0.022-0.574,0.029v6.896c0.191-0.01,0.379-0.029,0.574-0.029c6.178,0,11.205,5.027,11.205,11.205
	c0,6.178-5.027,11.205-11.205,11.205c-0.193,0-0.383-0.019-0.574-0.029v62.09h4.022v-7.758h12.067v-6.896h-12.067v-5.172h12.067
	v-6.896h-12.067V115.164z"/>
<rect x="209.455" y="195.663" style="fill:#FFFFFF;" width="93.091" height="6.896"/>
<rect x="255.431" y="195.663" style="fill:#D0D1D3;" width="47.12" height="6.896"/>
<path style="fill:#D35933;" d="M284.444,284.444c0,15.71-12.734,28.444-28.444,28.444s-28.444-12.734-28.444-28.444
	S240.29,256,256,256h142.222c12.378,0,22.411,10.033,22.411,22.411s-10.033,22.411-22.411,22.411
	c-12.378,0-22.411-10.033-22.411-22.411L284.444,284.444z"/>
<path style="fill:#B54324;" d="M398.222,256H256c-0.193,0-0.381,0.026-0.574,0.029v56.83c0.193,0.003,0.381,0.029,0.574,0.029
	c15.71,0,28.444-12.734,28.444-28.444l91.367-6.034c0,12.378,10.033,22.411,22.411,22.411c12.378,0,22.411-10.033,22.411-22.411
	S410.6,256,398.222,256z"/>
<rect x="213.333" y="217.212" style="fill:#D35933;" width="85.333" height="12.067"/>
<rect x="255.431" y="217.212" style="fill:#B54324;" width="43.236" height="12.067"/>
</svg>